<svg xmlns="http://www.w3.org/2000/svg" xmlns:xlink="http://www.w3.org/1999/xlink" viewBox="0 0 27 35" version="1.1"><path d="M26.135259999999988,16.9507692 C25.592932999999988,8.09953846 15.952159999999992,0.440461538 11.980585999999988,0.355923077 C8.007418999999999,0.270307692 0.5821650000000034,9.64438462 0.2815219999999954,19.1686923 C0,28.0990769 7.621788000000009,34.223 10.902838000000003,35 C10.994200000000006,30.7983846 11.330432000000002,15.3289231 11.386736000000013,13.5250769 C11.505187000000006,9.83876923 11.686317000000003,4.10307692 12.301945999999987,3.91246154 C12.655175000000014,3.80315385 13.136416999999994,7.02746154 13.07745700000001,8.93307692 C13.065239999999989,9.29653846 13.060990000000004,10.4741538 13.060990000000004,12.1455385 C13.725486999999987,11.4697692 14.419196999999997,10.7681538 14.840947999999997,10.3535385 C15.997309999999999,9.21738462 16.508827999999994,9.35253846 15.954284999999999,10.3659231 C15.612741,10.9894615 14.144049999999993,13.0625385 13.064177,14.5648462 C13.07002,17.5947692 13.083831000000004,21.4081538 13.098172000000005,24.9614615 C14.623166999999995,23.1764615 16.490237000000008,21.0366154 17.470780999999988,20.0851538 C19.528009999999995,18.0912308 19.746852999999987,18.3426923 18.77534,20.4356923 C18.178832999999997,21.7183077 15.26163600000001,25.1396923 13.108796000000012,27.8379231 C13.122074999999995,30.9911538 13.132699000000002,33.642 13.134823000000011,34.9073846 C18.910257,33.6371538 26.66590099999999,25.641 26.135259999999988,16.9507692" fill="#dd6c26" /></svg>
